<?xml version="1.0" encoding="utf-8"?>
<!-- Generator: Adobe Illustrator 24.1.2, SVG Export Plug-In . SVG Version: 6.00 Build 0)  -->
<svg version="1.1" id="Layer_1" xmlns="http://www.w3.org/2000/svg" xmlns:xlink="http://www.w3.org/1999/xlink" x="0px" y="0px"
	 viewBox="0 0 595.28 595.28" style="enable-background:new 0 0 595.28 595.28;" xml:space="preserve">
<g>
	<g>
		<path d="M70.88,70.88V524.4H524.4V70.88H70.88z M291.42,438.3c-75.13,0-134.92-59.98-134.84-135.27
			c0.07-74.49,60.32-134.64,134.89-134.65c74.75-0.02,135.01,60.49,134.97,135.51C426.39,378.31,366.13,438.3,291.42,438.3z
			 M431.54,194.71c-17.91-0.12-31.56-13.97-31.43-31.88c0.13-17.18,14.2-31.32,31.32-31.49c17.14-0.17,32.12,14.69,32.06,31.8
			C463.44,180.76,449.2,194.83,431.54,194.71z"/>
		<path d="M291.48,216.23c-48.14-0.03-87.29,38.95-87.32,86.96c-0.04,48.54,39.03,87.56,87.63,87.53
			c48-0.03,86.84-39.14,86.81-87.42C378.57,255.06,339.74,216.26,291.48,216.23z"/>
	</g>
</g>
</svg>
